<svg width="16" height="16" viewBox="0 0 16 16" fill="none" xmlns="http://www.w3.org/2000/svg">
<path d="M7.0604 0.842856C7.61712 0.39984 8.40161 0.384695 8.97502 0.805894L9.63625 1.2916C9.90679 1.49033 10.2337 1.5975 10.5694 1.5975H11.4726C12.1643 1.5975 12.7751 2.04834 12.9789 2.70923L13.2105 3.46027C13.3094 3.7811 13.5082 4.06195 13.7779 4.26192L14.5481 4.83297C15.1115 5.25071 15.3311 5.99045 15.0869 6.64793L14.8212 7.36319C14.6936 7.70677 14.6897 8.08408 14.8102 8.43022L15.1181 9.3147C15.3448 9.96573 15.1221 10.6885 14.5683 11.0991L13.7779 11.6852C13.5082 11.8851 13.3094 12.166 13.2105 12.4868L12.9789 13.2378C12.7751 13.8987 12.1643 14.3496 11.4726 14.3496H10.5694C10.2337 14.3496 9.90679 14.4568 9.63625 14.6555L8.90298 15.1941C8.36407 15.59 7.63405 15.6027 7.08165 15.2259L6.19863 14.6236C5.93685 14.4451 5.62732 14.3496 5.31044 14.3496H4.49808C3.82405 14.3496 3.2246 13.921 3.00658 13.2832L2.71914 12.4424C2.61895 12.1493 2.43463 11.8922 2.1892 11.7032L1.4089 11.1025C0.871014 10.6884 0.658671 9.97641 0.881847 9.33531L1.19693 8.43021C1.31742 8.08408 1.31353 7.70678 1.18593 7.3632L0.912564 6.62716C0.672048 5.97957 0.881238 5.25082 1.42862 4.8294L2.1892 4.24384C2.43463 4.05488 2.61895 3.79781 2.71914 3.50472L3.00658 2.66388C3.2246 2.02608 3.82405 1.5975 4.49808 1.5975H5.56145C5.91797 1.5975 6.26395 1.47663 6.54293 1.25464L7.0604 0.842856Z" fill="#FFED8C"/>
<path d="M12.0313 7.34304L8.87881 10.4955L8.24831 9.86503" fill="#F2CF18"/>
<path d="M3.83483 7.97354L5.79413 9.5C6.1558 9.86603 6.31402 9.89728 6.68758 9.54339L11.4726 5.0725M12.0313 7.34304L8.87881 10.4955L8.24831 9.86503M13.7779 11.6852L14.5683 11.0991C15.1221 10.6885 15.3448 9.96573 15.1181 9.3147L14.8102 8.43022C14.6897 8.08408 14.6936 7.70677 14.8212 7.36319L15.0869 6.64793C15.3311 5.99045 15.1115 5.25071 14.5481 4.83297L13.7779 4.26192C13.5082 4.06195 13.3094 3.7811 13.2105 3.46027L12.9789 2.70923C12.7751 2.04834 12.1643 1.5975 11.4726 1.5975H10.5694C10.2337 1.5975 9.90679 1.49033 9.63625 1.2916L8.97502 0.805894C8.40161 0.384695 7.61712 0.39984 7.0604 0.842856L6.54293 1.25464C6.26395 1.47663 5.91797 1.5975 5.56145 1.5975H4.49808C3.82405 1.5975 3.2246 2.02608 3.00658 2.66388L2.71914 3.50472C2.61895 3.79781 2.43463 4.05488 2.1892 4.24384L1.42862 4.8294C0.881238 5.25082 0.672048 5.97957 0.912564 6.62716L1.18593 7.3632C1.31353 7.70678 1.31742 8.08408 1.19693 8.43021L0.881847 9.33531C0.658671 9.97641 0.871014 10.6884 1.4089 11.1025L2.1892 11.7032C2.43463 11.8922 2.61895 12.1493 2.71914 12.4424L3.00658 13.2832C3.2246 13.921 3.82405 14.3496 4.49808 14.3496H5.31044C5.62732 14.3496 5.93685 14.4451 6.19863 14.6236L7.08165 15.2259C7.63405 15.6027 8.36407 15.59 8.90298 15.1941L9.63625 14.6555C9.90679 14.4568 10.2337 14.3496 10.5694 14.3496H11.4726C12.1643 14.3496 12.7751 13.8987 12.9789 13.2378L13.2105 12.4868C13.3094 12.166 13.5082 11.8851 13.7779 11.6852Z" stroke="#F2CF18" stroke-linecap="round" stroke-linejoin="round"/>
</svg>
